<mxfile host="Electron" agent="Mozilla/5.0 (Macintosh; Intel Mac OS X 10_15_7) AppleWebKit/537.36 (KHTML, like Gecko) draw.io/26.2.15 Chrome/134.0.6998.205 Electron/35.2.1 Safari/537.36" version="26.2.15">
  <diagram id="C5RBs43oDa-KdzZeNtuy" name="Page-1">
    <mxGraphModel dx="1256" dy="759" grid="1" gridSize="10" guides="1" tooltips="1" connect="1" arrows="1" fold="1" page="1" pageScale="1" pageWidth="827" pageHeight="1169" math="0" shadow="0">
      <root>
        <mxCell id="WIyWlLk6GJQsqaUBKTNV-0" />
        <mxCell id="WIyWlLk6GJQsqaUBKTNV-1" parent="WIyWlLk6GJQsqaUBKTNV-0" />
        <mxCell id="zkfFHV4jXpPFQw0GAbJ--0" value="Employee" style="swimlane;fontStyle=0;align=center;verticalAlign=top;childLayout=stackLayout;horizontal=1;startSize=26;horizontalStack=0;resizeParent=1;resizeLast=0;collapsible=1;marginBottom=0;rounded=0;shadow=0;strokeWidth=1;labelBackgroundColor=none;fillColor=#09555B;strokeColor=#BAC8D3;fontColor=#EEEEEE;" parent="WIyWlLk6GJQsqaUBKTNV-1" vertex="1">
          <mxGeometry x="39" y="105" width="160" height="154" as="geometry">
            <mxRectangle x="230" y="140" width="160" height="26" as="alternateBounds" />
          </mxGeometry>
        </mxCell>
        <mxCell id="zkfFHV4jXpPFQw0GAbJ--1" value="employee_id" style="text;align=left;verticalAlign=top;spacingLeft=4;spacingRight=4;overflow=hidden;rotatable=0;points=[[0,0.5],[1,0.5]];portConstraint=eastwest;labelBackgroundColor=none;fontColor=#EEEEEE;" parent="zkfFHV4jXpPFQw0GAbJ--0" vertex="1">
          <mxGeometry y="26" width="160" height="26" as="geometry" />
        </mxCell>
        <mxCell id="SqJzmu0Uh7ImOw3RZCEa-30" value="" style="line;html=1;strokeWidth=1;align=left;verticalAlign=middle;spacingTop=-1;spacingLeft=3;spacingRight=3;rotatable=0;labelPosition=right;points=[];portConstraint=eastwest;labelBackgroundColor=none;fillColor=#09555B;strokeColor=#BAC8D3;fontColor=#EEEEEE;" vertex="1" parent="zkfFHV4jXpPFQw0GAbJ--0">
          <mxGeometry y="52" width="160" height="8" as="geometry" />
        </mxCell>
        <mxCell id="zkfFHV4jXpPFQw0GAbJ--2" value="first_name" style="text;align=left;verticalAlign=top;spacingLeft=4;spacingRight=4;overflow=hidden;rotatable=0;points=[[0,0.5],[1,0.5]];portConstraint=eastwest;rounded=0;shadow=0;html=0;labelBackgroundColor=none;fontColor=#EEEEEE;" parent="zkfFHV4jXpPFQw0GAbJ--0" vertex="1">
          <mxGeometry y="60" width="160" height="26" as="geometry" />
        </mxCell>
        <mxCell id="SqJzmu0Uh7ImOw3RZCEa-31" value="" style="line;html=1;strokeWidth=1;align=left;verticalAlign=middle;spacingTop=-1;spacingLeft=3;spacingRight=3;rotatable=0;labelPosition=right;points=[];portConstraint=eastwest;labelBackgroundColor=none;fillColor=#09555B;strokeColor=#BAC8D3;fontColor=#EEEEEE;" vertex="1" parent="zkfFHV4jXpPFQw0GAbJ--0">
          <mxGeometry y="86" width="160" height="8" as="geometry" />
        </mxCell>
        <mxCell id="zkfFHV4jXpPFQw0GAbJ--3" value="last_name" style="text;align=left;verticalAlign=top;spacingLeft=4;spacingRight=4;overflow=hidden;rotatable=0;points=[[0,0.5],[1,0.5]];portConstraint=eastwest;rounded=0;shadow=0;html=0;labelBackgroundColor=none;fontColor=#EEEEEE;" parent="zkfFHV4jXpPFQw0GAbJ--0" vertex="1">
          <mxGeometry y="94" width="160" height="26" as="geometry" />
        </mxCell>
        <mxCell id="SqJzmu0Uh7ImOw3RZCEa-32" value="" style="line;html=1;strokeWidth=1;align=left;verticalAlign=middle;spacingTop=-1;spacingLeft=3;spacingRight=3;rotatable=0;labelPosition=right;points=[];portConstraint=eastwest;labelBackgroundColor=none;fillColor=#09555B;strokeColor=#BAC8D3;fontColor=#EEEEEE;" vertex="1" parent="zkfFHV4jXpPFQw0GAbJ--0">
          <mxGeometry y="120" width="160" height="8" as="geometry" />
        </mxCell>
        <mxCell id="SqJzmu0Uh7ImOw3RZCEa-17" value="position" style="text;align=left;verticalAlign=top;spacingLeft=4;spacingRight=4;overflow=hidden;rotatable=0;points=[[0,0.5],[1,0.5]];portConstraint=eastwest;rounded=0;shadow=0;html=0;labelBackgroundColor=none;fontColor=#EEEEEE;" vertex="1" parent="zkfFHV4jXpPFQw0GAbJ--0">
          <mxGeometry y="128" width="160" height="26" as="geometry" />
        </mxCell>
        <mxCell id="zkfFHV4jXpPFQw0GAbJ--6" value="Order" style="swimlane;fontStyle=0;align=center;verticalAlign=top;childLayout=stackLayout;horizontal=1;startSize=26;horizontalStack=0;resizeParent=1;resizeLast=0;collapsible=1;marginBottom=0;rounded=0;shadow=0;strokeWidth=1;labelBackgroundColor=none;fillColor=#09555B;strokeColor=#BAC8D3;fontColor=#EEEEEE;" parent="WIyWlLk6GJQsqaUBKTNV-1" vertex="1">
          <mxGeometry x="39" y="360" width="160" height="160" as="geometry">
            <mxRectangle x="130" y="380" width="160" height="26" as="alternateBounds" />
          </mxGeometry>
        </mxCell>
        <mxCell id="zkfFHV4jXpPFQw0GAbJ--7" value="order_id" style="text;align=left;verticalAlign=top;spacingLeft=4;spacingRight=4;overflow=hidden;rotatable=0;points=[[0,0.5],[1,0.5]];portConstraint=eastwest;labelBackgroundColor=none;fontColor=#EEEEEE;" parent="zkfFHV4jXpPFQw0GAbJ--6" vertex="1">
          <mxGeometry y="26" width="160" height="26" as="geometry" />
        </mxCell>
        <mxCell id="SqJzmu0Uh7ImOw3RZCEa-34" value="" style="line;html=1;strokeWidth=1;align=left;verticalAlign=middle;spacingTop=-1;spacingLeft=3;spacingRight=3;rotatable=0;labelPosition=right;points=[];portConstraint=eastwest;labelBackgroundColor=none;fillColor=#09555B;strokeColor=#BAC8D3;fontColor=#EEEEEE;" vertex="1" parent="zkfFHV4jXpPFQw0GAbJ--6">
          <mxGeometry y="52" width="160" height="8" as="geometry" />
        </mxCell>
        <mxCell id="zkfFHV4jXpPFQw0GAbJ--8" value="customer_id" style="text;align=left;verticalAlign=top;spacingLeft=4;spacingRight=4;overflow=hidden;rotatable=0;points=[[0,0.5],[1,0.5]];portConstraint=eastwest;rounded=0;shadow=0;html=0;labelBackgroundColor=none;fontColor=#EEEEEE;" parent="zkfFHV4jXpPFQw0GAbJ--6" vertex="1">
          <mxGeometry y="60" width="160" height="26" as="geometry" />
        </mxCell>
        <mxCell id="zkfFHV4jXpPFQw0GAbJ--9" value="" style="line;html=1;strokeWidth=1;align=left;verticalAlign=middle;spacingTop=-1;spacingLeft=3;spacingRight=3;rotatable=0;labelPosition=right;points=[];portConstraint=eastwest;labelBackgroundColor=none;fillColor=#09555B;strokeColor=#BAC8D3;fontColor=#EEEEEE;" parent="zkfFHV4jXpPFQw0GAbJ--6" vertex="1">
          <mxGeometry y="86" width="160" height="8" as="geometry" />
        </mxCell>
        <mxCell id="zkfFHV4jXpPFQw0GAbJ--10" value="order_date" style="text;align=left;verticalAlign=top;spacingLeft=4;spacingRight=4;overflow=hidden;rotatable=0;points=[[0,0.5],[1,0.5]];portConstraint=eastwest;fontStyle=0;labelBackgroundColor=none;fontColor=#EEEEEE;" parent="zkfFHV4jXpPFQw0GAbJ--6" vertex="1">
          <mxGeometry y="94" width="160" height="26" as="geometry" />
        </mxCell>
        <mxCell id="zkfFHV4jXpPFQw0GAbJ--13" value="Sales" style="swimlane;fontStyle=0;align=center;verticalAlign=top;childLayout=stackLayout;horizontal=1;startSize=26;horizontalStack=0;resizeParent=1;resizeLast=0;collapsible=1;marginBottom=0;rounded=0;shadow=0;strokeWidth=1;labelBackgroundColor=none;fillColor=#09555B;strokeColor=#BAC8D3;fontColor=#EEEEEE;" parent="WIyWlLk6GJQsqaUBKTNV-1" vertex="1">
          <mxGeometry x="319" y="360" width="160" height="160" as="geometry">
            <mxRectangle x="340" y="380" width="170" height="26" as="alternateBounds" />
          </mxGeometry>
        </mxCell>
        <mxCell id="zkfFHV4jXpPFQw0GAbJ--14" value="sale_id" style="text;align=left;verticalAlign=top;spacingLeft=4;spacingRight=4;overflow=hidden;rotatable=0;points=[[0,0.5],[1,0.5]];portConstraint=eastwest;labelBackgroundColor=none;fontColor=#EEEEEE;" parent="zkfFHV4jXpPFQw0GAbJ--13" vertex="1">
          <mxGeometry y="26" width="160" height="26" as="geometry" />
        </mxCell>
        <mxCell id="zkfFHV4jXpPFQw0GAbJ--15" value="" style="line;html=1;strokeWidth=1;align=left;verticalAlign=middle;spacingTop=-1;spacingLeft=3;spacingRight=3;rotatable=0;labelPosition=right;points=[];portConstraint=eastwest;labelBackgroundColor=none;fillColor=#09555B;strokeColor=#BAC8D3;fontColor=#EEEEEE;" parent="zkfFHV4jXpPFQw0GAbJ--13" vertex="1">
          <mxGeometry y="52" width="160" height="8" as="geometry" />
        </mxCell>
        <mxCell id="SqJzmu0Uh7ImOw3RZCEa-41" value="book_id" style="text;align=left;verticalAlign=top;spacingLeft=4;spacingRight=4;overflow=hidden;rotatable=0;points=[[0,0.5],[1,0.5]];portConstraint=eastwest;labelBackgroundColor=none;fontColor=#EEEEEE;" vertex="1" parent="zkfFHV4jXpPFQw0GAbJ--13">
          <mxGeometry y="60" width="160" height="26" as="geometry" />
        </mxCell>
        <mxCell id="SqJzmu0Uh7ImOw3RZCEa-37" value="" style="line;html=1;strokeWidth=1;align=left;verticalAlign=middle;spacingTop=-1;spacingLeft=3;spacingRight=3;rotatable=0;labelPosition=right;points=[];portConstraint=eastwest;labelBackgroundColor=none;fillColor=#09555B;strokeColor=#BAC8D3;fontColor=#EEEEEE;" vertex="1" parent="zkfFHV4jXpPFQw0GAbJ--13">
          <mxGeometry y="86" width="160" height="8" as="geometry" />
        </mxCell>
        <mxCell id="SqJzmu0Uh7ImOw3RZCEa-40" value="order_id" style="text;align=left;verticalAlign=top;spacingLeft=4;spacingRight=4;overflow=hidden;rotatable=0;points=[[0,0.5],[1,0.5]];portConstraint=eastwest;labelBackgroundColor=none;fontColor=#EEEEEE;" vertex="1" parent="zkfFHV4jXpPFQw0GAbJ--13">
          <mxGeometry y="94" width="160" height="26" as="geometry" />
        </mxCell>
        <mxCell id="SqJzmu0Uh7ImOw3RZCEa-38" value="" style="line;html=1;strokeWidth=1;align=left;verticalAlign=middle;spacingTop=-1;spacingLeft=3;spacingRight=3;rotatable=0;labelPosition=right;points=[];portConstraint=eastwest;labelBackgroundColor=none;fillColor=#09555B;strokeColor=#BAC8D3;fontColor=#EEEEEE;" vertex="1" parent="zkfFHV4jXpPFQw0GAbJ--13">
          <mxGeometry y="120" width="160" height="8" as="geometry" />
        </mxCell>
        <mxCell id="SqJzmu0Uh7ImOw3RZCEa-42" value="quantity&#xa;" style="text;align=left;verticalAlign=top;spacingLeft=4;spacingRight=4;overflow=hidden;rotatable=0;points=[[0,0.5],[1,0.5]];portConstraint=eastwest;labelBackgroundColor=none;fontColor=#EEEEEE;" vertex="1" parent="zkfFHV4jXpPFQw0GAbJ--13">
          <mxGeometry y="128" width="160" height="26" as="geometry" />
        </mxCell>
        <mxCell id="zkfFHV4jXpPFQw0GAbJ--17" value="Customer" style="swimlane;fontStyle=0;align=center;verticalAlign=top;childLayout=stackLayout;horizontal=1;startSize=26;horizontalStack=0;resizeParent=1;resizeLast=0;collapsible=1;marginBottom=0;rounded=0;shadow=0;strokeWidth=1;labelBackgroundColor=none;fillColor=#09555B;strokeColor=#BAC8D3;fontColor=#EEEEEE;" parent="WIyWlLk6GJQsqaUBKTNV-1" vertex="1">
          <mxGeometry x="319" y="105" width="160" height="154" as="geometry">
            <mxRectangle x="550" y="140" width="160" height="26" as="alternateBounds" />
          </mxGeometry>
        </mxCell>
        <mxCell id="zkfFHV4jXpPFQw0GAbJ--18" value="customer_id" style="text;align=left;verticalAlign=top;spacingLeft=4;spacingRight=4;overflow=hidden;rotatable=0;points=[[0,0.5],[1,0.5]];portConstraint=eastwest;labelBackgroundColor=none;fontColor=#EEEEEE;" parent="zkfFHV4jXpPFQw0GAbJ--17" vertex="1">
          <mxGeometry y="26" width="160" height="26" as="geometry" />
        </mxCell>
        <mxCell id="SqJzmu0Uh7ImOw3RZCEa-33" value="" style="line;html=1;strokeWidth=1;align=left;verticalAlign=middle;spacingTop=-1;spacingLeft=3;spacingRight=3;rotatable=0;labelPosition=right;points=[];portConstraint=eastwest;labelBackgroundColor=none;fillColor=#09555B;strokeColor=#BAC8D3;fontColor=#EEEEEE;" vertex="1" parent="zkfFHV4jXpPFQw0GAbJ--17">
          <mxGeometry y="52" width="160" height="8" as="geometry" />
        </mxCell>
        <mxCell id="zkfFHV4jXpPFQw0GAbJ--19" value="first_name" style="text;align=left;verticalAlign=top;spacingLeft=4;spacingRight=4;overflow=hidden;rotatable=0;points=[[0,0.5],[1,0.5]];portConstraint=eastwest;rounded=0;shadow=0;html=0;labelBackgroundColor=none;fontColor=#EEEEEE;" parent="zkfFHV4jXpPFQw0GAbJ--17" vertex="1">
          <mxGeometry y="60" width="160" height="26" as="geometry" />
        </mxCell>
        <mxCell id="SqJzmu0Uh7ImOw3RZCEa-28" value="" style="line;html=1;strokeWidth=1;align=left;verticalAlign=middle;spacingTop=-1;spacingLeft=3;spacingRight=3;rotatable=0;labelPosition=right;points=[];portConstraint=eastwest;labelBackgroundColor=none;fillColor=#09555B;strokeColor=#BAC8D3;fontColor=#EEEEEE;" vertex="1" parent="zkfFHV4jXpPFQw0GAbJ--17">
          <mxGeometry y="86" width="160" height="8" as="geometry" />
        </mxCell>
        <mxCell id="zkfFHV4jXpPFQw0GAbJ--20" value="last_name" style="text;align=left;verticalAlign=top;spacingLeft=4;spacingRight=4;overflow=hidden;rotatable=0;points=[[0,0.5],[1,0.5]];portConstraint=eastwest;rounded=0;shadow=0;html=0;labelBackgroundColor=none;fontColor=#EEEEEE;" parent="zkfFHV4jXpPFQw0GAbJ--17" vertex="1">
          <mxGeometry y="94" width="160" height="26" as="geometry" />
        </mxCell>
        <mxCell id="SqJzmu0Uh7ImOw3RZCEa-29" value="" style="line;html=1;strokeWidth=1;align=left;verticalAlign=middle;spacingTop=-1;spacingLeft=3;spacingRight=3;rotatable=0;labelPosition=right;points=[];portConstraint=eastwest;labelBackgroundColor=none;fillColor=#09555B;strokeColor=#BAC8D3;fontColor=#EEEEEE;" vertex="1" parent="zkfFHV4jXpPFQw0GAbJ--17">
          <mxGeometry y="120" width="160" height="8" as="geometry" />
        </mxCell>
        <mxCell id="zkfFHV4jXpPFQw0GAbJ--21" value="email" style="text;align=left;verticalAlign=top;spacingLeft=4;spacingRight=4;overflow=hidden;rotatable=0;points=[[0,0.5],[1,0.5]];portConstraint=eastwest;rounded=0;shadow=0;html=0;labelBackgroundColor=none;fontColor=#EEEEEE;" parent="zkfFHV4jXpPFQw0GAbJ--17" vertex="1">
          <mxGeometry y="128" width="160" height="26" as="geometry" />
        </mxCell>
        <mxCell id="SqJzmu0Uh7ImOw3RZCEa-0" value="Book" style="swimlane;fontStyle=0;align=center;verticalAlign=top;childLayout=stackLayout;horizontal=1;startSize=26;horizontalStack=0;resizeParent=1;resizeLast=0;collapsible=1;marginBottom=0;rounded=0;shadow=0;strokeWidth=1;labelBackgroundColor=none;fillColor=#09555B;strokeColor=#BAC8D3;fontColor=#EEEEEE;" vertex="1" parent="WIyWlLk6GJQsqaUBKTNV-1">
          <mxGeometry x="599" y="105" width="160" height="230" as="geometry">
            <mxRectangle x="230" y="140" width="160" height="26" as="alternateBounds" />
          </mxGeometry>
        </mxCell>
        <mxCell id="SqJzmu0Uh7ImOw3RZCEa-1" value="book_id" style="text;align=left;verticalAlign=top;spacingLeft=4;spacingRight=4;overflow=hidden;rotatable=0;points=[[0,0.5],[1,0.5]];portConstraint=eastwest;labelBackgroundColor=none;fontColor=#EEEEEE;" vertex="1" parent="SqJzmu0Uh7ImOw3RZCEa-0">
          <mxGeometry y="26" width="160" height="26" as="geometry" />
        </mxCell>
        <mxCell id="SqJzmu0Uh7ImOw3RZCEa-23" value="" style="line;html=1;strokeWidth=1;align=left;verticalAlign=middle;spacingTop=-1;spacingLeft=3;spacingRight=3;rotatable=0;labelPosition=right;points=[];portConstraint=eastwest;labelBackgroundColor=none;fillColor=#09555B;strokeColor=#BAC8D3;fontColor=#EEEEEE;" vertex="1" parent="SqJzmu0Uh7ImOw3RZCEa-0">
          <mxGeometry y="52" width="160" height="8" as="geometry" />
        </mxCell>
        <mxCell id="SqJzmu0Uh7ImOw3RZCEa-2" value="title" style="text;align=left;verticalAlign=top;spacingLeft=4;spacingRight=4;overflow=hidden;rotatable=0;points=[[0,0.5],[1,0.5]];portConstraint=eastwest;rounded=0;shadow=0;html=0;labelBackgroundColor=none;fontColor=#EEEEEE;" vertex="1" parent="SqJzmu0Uh7ImOw3RZCEa-0">
          <mxGeometry y="60" width="160" height="26" as="geometry" />
        </mxCell>
        <mxCell id="SqJzmu0Uh7ImOw3RZCEa-24" value="" style="line;html=1;strokeWidth=1;align=left;verticalAlign=middle;spacingTop=-1;spacingLeft=3;spacingRight=3;rotatable=0;labelPosition=right;points=[];portConstraint=eastwest;labelBackgroundColor=none;fillColor=#09555B;strokeColor=#BAC8D3;fontColor=#EEEEEE;" vertex="1" parent="SqJzmu0Uh7ImOw3RZCEa-0">
          <mxGeometry y="86" width="160" height="8" as="geometry" />
        </mxCell>
        <mxCell id="SqJzmu0Uh7ImOw3RZCEa-3" value="author" style="text;align=left;verticalAlign=top;spacingLeft=4;spacingRight=4;overflow=hidden;rotatable=0;points=[[0,0.5],[1,0.5]];portConstraint=eastwest;rounded=0;shadow=0;html=0;labelBackgroundColor=none;fontColor=#EEEEEE;" vertex="1" parent="SqJzmu0Uh7ImOw3RZCEa-0">
          <mxGeometry y="94" width="160" height="26" as="geometry" />
        </mxCell>
        <mxCell id="SqJzmu0Uh7ImOw3RZCEa-25" value="" style="line;html=1;strokeWidth=1;align=left;verticalAlign=middle;spacingTop=-1;spacingLeft=3;spacingRight=3;rotatable=0;labelPosition=right;points=[];portConstraint=eastwest;labelBackgroundColor=none;fillColor=#09555B;strokeColor=#BAC8D3;fontColor=#EEEEEE;" vertex="1" parent="SqJzmu0Uh7ImOw3RZCEa-0">
          <mxGeometry y="120" width="160" height="8" as="geometry" />
        </mxCell>
        <mxCell id="SqJzmu0Uh7ImOw3RZCEa-5" value="price" style="text;align=left;verticalAlign=top;spacingLeft=4;spacingRight=4;overflow=hidden;rotatable=0;points=[[0,0.5],[1,0.5]];portConstraint=eastwest;labelBackgroundColor=none;fontColor=#EEEEEE;" vertex="1" parent="SqJzmu0Uh7ImOw3RZCEa-0">
          <mxGeometry y="128" width="160" height="26" as="geometry" />
        </mxCell>
        <mxCell id="SqJzmu0Uh7ImOw3RZCEa-26" value="" style="line;html=1;strokeWidth=1;align=left;verticalAlign=middle;spacingTop=-1;spacingLeft=3;spacingRight=3;rotatable=0;labelPosition=right;points=[];portConstraint=eastwest;labelBackgroundColor=none;fillColor=#09555B;strokeColor=#BAC8D3;fontColor=#EEEEEE;" vertex="1" parent="SqJzmu0Uh7ImOw3RZCEa-0">
          <mxGeometry y="154" width="160" height="8" as="geometry" />
        </mxCell>
        <mxCell id="SqJzmu0Uh7ImOw3RZCEa-21" value="genre" style="text;align=left;verticalAlign=top;spacingLeft=4;spacingRight=4;overflow=hidden;rotatable=0;points=[[0,0.5],[1,0.5]];portConstraint=eastwest;labelBackgroundColor=none;fontColor=#EEEEEE;" vertex="1" parent="SqJzmu0Uh7ImOw3RZCEa-0">
          <mxGeometry y="162" width="160" height="26" as="geometry" />
        </mxCell>
        <mxCell id="SqJzmu0Uh7ImOw3RZCEa-27" value="" style="line;html=1;strokeWidth=1;align=left;verticalAlign=middle;spacingTop=-1;spacingLeft=3;spacingRight=3;rotatable=0;labelPosition=right;points=[];portConstraint=eastwest;labelBackgroundColor=none;fillColor=#09555B;strokeColor=#BAC8D3;fontColor=#EEEEEE;" vertex="1" parent="SqJzmu0Uh7ImOw3RZCEa-0">
          <mxGeometry y="188" width="160" height="8" as="geometry" />
        </mxCell>
        <mxCell id="SqJzmu0Uh7ImOw3RZCEa-22" value="stock_quantity&#xa;" style="text;align=left;verticalAlign=top;spacingLeft=4;spacingRight=4;overflow=hidden;rotatable=0;points=[[0,0.5],[1,0.5]];portConstraint=eastwest;labelBackgroundColor=none;fontColor=#EEEEEE;" vertex="1" parent="SqJzmu0Uh7ImOw3RZCEa-0">
          <mxGeometry y="196" width="160" height="34" as="geometry" />
        </mxCell>
        <mxCell id="SqJzmu0Uh7ImOw3RZCEa-8" value="Date" style="swimlane;fontStyle=0;align=center;verticalAlign=top;childLayout=stackLayout;horizontal=1;startSize=26;horizontalStack=0;resizeParent=1;resizeLast=0;collapsible=1;marginBottom=0;rounded=0;shadow=0;strokeWidth=1;labelBackgroundColor=none;fillColor=#09555B;strokeColor=#BAC8D3;fontColor=#EEEEEE;" vertex="1" parent="WIyWlLk6GJQsqaUBKTNV-1">
          <mxGeometry x="599" y="360" width="160" height="160" as="geometry">
            <mxRectangle x="230" y="140" width="160" height="26" as="alternateBounds" />
          </mxGeometry>
        </mxCell>
        <mxCell id="SqJzmu0Uh7ImOw3RZCEa-9" value="date_id" style="text;align=left;verticalAlign=top;spacingLeft=4;spacingRight=4;overflow=hidden;rotatable=0;points=[[0,0.5],[1,0.5]];portConstraint=eastwest;labelBackgroundColor=none;fontColor=#EEEEEE;" vertex="1" parent="SqJzmu0Uh7ImOw3RZCEa-8">
          <mxGeometry y="26" width="160" height="26" as="geometry" />
        </mxCell>
        <mxCell id="SqJzmu0Uh7ImOw3RZCEa-39" value="" style="line;html=1;strokeWidth=1;align=left;verticalAlign=middle;spacingTop=-1;spacingLeft=3;spacingRight=3;rotatable=0;labelPosition=right;points=[];portConstraint=eastwest;labelBackgroundColor=none;fillColor=#09555B;strokeColor=#BAC8D3;fontColor=#EEEEEE;" vertex="1" parent="SqJzmu0Uh7ImOw3RZCEa-8">
          <mxGeometry y="52" width="160" height="8" as="geometry" />
        </mxCell>
        <mxCell id="SqJzmu0Uh7ImOw3RZCEa-10" value="date_value" style="text;align=left;verticalAlign=top;spacingLeft=4;spacingRight=4;overflow=hidden;rotatable=0;points=[[0,0.5],[1,0.5]];portConstraint=eastwest;rounded=0;shadow=0;html=0;labelBackgroundColor=none;fontColor=#EEEEEE;" vertex="1" parent="SqJzmu0Uh7ImOw3RZCEa-8">
          <mxGeometry y="60" width="160" height="26" as="geometry" />
        </mxCell>
        <mxCell id="SqJzmu0Uh7ImOw3RZCEa-45" value="" style="line;html=1;strokeWidth=1;align=left;verticalAlign=middle;spacingTop=-1;spacingLeft=3;spacingRight=3;rotatable=0;labelPosition=right;points=[];portConstraint=eastwest;labelBackgroundColor=none;fillColor=#09555B;strokeColor=#BAC8D3;fontColor=#EEEEEE;" vertex="1" parent="SqJzmu0Uh7ImOw3RZCEa-8">
          <mxGeometry y="86" width="160" height="8" as="geometry" />
        </mxCell>
        <mxCell id="SqJzmu0Uh7ImOw3RZCEa-43" value="day_of_week&#xa;" style="text;align=left;verticalAlign=top;spacingLeft=4;spacingRight=4;overflow=hidden;rotatable=0;points=[[0,0.5],[1,0.5]];portConstraint=eastwest;labelBackgroundColor=none;fontColor=#EEEEEE;" vertex="1" parent="SqJzmu0Uh7ImOw3RZCEa-8">
          <mxGeometry y="94" width="160" height="26" as="geometry" />
        </mxCell>
        <mxCell id="SqJzmu0Uh7ImOw3RZCEa-56" value="" style="swimlane;fontStyle=0;align=center;verticalAlign=top;childLayout=stackLayout;horizontal=1;startSize=26;horizontalStack=0;resizeParent=1;resizeLast=0;collapsible=1;marginBottom=0;rounded=0;shadow=0;strokeWidth=1;labelBackgroundColor=none;fillColor=#09555B;strokeColor=#BAC8D3;fontColor=#EEEEEE;" vertex="1" parent="WIyWlLk6GJQsqaUBKTNV-1">
          <mxGeometry x="199" y="105" width="40" height="154" as="geometry">
            <mxRectangle x="230" y="140" width="160" height="26" as="alternateBounds" />
          </mxGeometry>
        </mxCell>
        <mxCell id="SqJzmu0Uh7ImOw3RZCEa-57" value="PK" style="text;align=left;verticalAlign=top;spacingLeft=4;spacingRight=4;overflow=hidden;rotatable=0;points=[[0,0.5],[1,0.5]];portConstraint=eastwest;labelBackgroundColor=none;fontColor=#EEEEEE;" vertex="1" parent="SqJzmu0Uh7ImOw3RZCEa-56">
          <mxGeometry y="26" width="40" height="26" as="geometry" />
        </mxCell>
        <mxCell id="SqJzmu0Uh7ImOw3RZCEa-58" value="" style="line;html=1;strokeWidth=1;align=left;verticalAlign=middle;spacingTop=-1;spacingLeft=3;spacingRight=3;rotatable=0;labelPosition=right;points=[];portConstraint=eastwest;labelBackgroundColor=none;fillColor=#09555B;strokeColor=#BAC8D3;fontColor=#EEEEEE;" vertex="1" parent="SqJzmu0Uh7ImOw3RZCEa-56">
          <mxGeometry y="52" width="40" height="8" as="geometry" />
        </mxCell>
        <mxCell id="SqJzmu0Uh7ImOw3RZCEa-59" value=" " style="text;align=left;verticalAlign=top;spacingLeft=4;spacingRight=4;overflow=hidden;rotatable=0;points=[[0,0.5],[1,0.5]];portConstraint=eastwest;rounded=0;shadow=0;html=0;labelBackgroundColor=none;fontColor=#EEEEEE;" vertex="1" parent="SqJzmu0Uh7ImOw3RZCEa-56">
          <mxGeometry y="60" width="40" height="26" as="geometry" />
        </mxCell>
        <mxCell id="SqJzmu0Uh7ImOw3RZCEa-60" value="" style="line;html=1;strokeWidth=1;align=left;verticalAlign=middle;spacingTop=-1;spacingLeft=3;spacingRight=3;rotatable=0;labelPosition=right;points=[];portConstraint=eastwest;labelBackgroundColor=none;fillColor=#09555B;strokeColor=#BAC8D3;fontColor=#EEEEEE;" vertex="1" parent="SqJzmu0Uh7ImOw3RZCEa-56">
          <mxGeometry y="86" width="40" height="8" as="geometry" />
        </mxCell>
        <mxCell id="SqJzmu0Uh7ImOw3RZCEa-61" value=" " style="text;align=left;verticalAlign=top;spacingLeft=4;spacingRight=4;overflow=hidden;rotatable=0;points=[[0,0.5],[1,0.5]];portConstraint=eastwest;rounded=0;shadow=0;html=0;labelBackgroundColor=none;fontColor=#EEEEEE;" vertex="1" parent="SqJzmu0Uh7ImOw3RZCEa-56">
          <mxGeometry y="94" width="40" height="26" as="geometry" />
        </mxCell>
        <mxCell id="SqJzmu0Uh7ImOw3RZCEa-62" value="" style="line;html=1;strokeWidth=1;align=left;verticalAlign=middle;spacingTop=-1;spacingLeft=3;spacingRight=3;rotatable=0;labelPosition=right;points=[];portConstraint=eastwest;labelBackgroundColor=none;fillColor=#09555B;strokeColor=#BAC8D3;fontColor=#EEEEEE;" vertex="1" parent="SqJzmu0Uh7ImOw3RZCEa-56">
          <mxGeometry y="120" width="40" height="8" as="geometry" />
        </mxCell>
        <mxCell id="SqJzmu0Uh7ImOw3RZCEa-63" value=" " style="text;align=left;verticalAlign=top;spacingLeft=4;spacingRight=4;overflow=hidden;rotatable=0;points=[[0,0.5],[1,0.5]];portConstraint=eastwest;rounded=0;shadow=0;html=0;labelBackgroundColor=none;fontColor=#EEEEEE;" vertex="1" parent="SqJzmu0Uh7ImOw3RZCEa-56">
          <mxGeometry y="128" width="40" height="26" as="geometry" />
        </mxCell>
        <mxCell id="SqJzmu0Uh7ImOw3RZCEa-64" value="" style="swimlane;fontStyle=0;align=center;verticalAlign=top;childLayout=stackLayout;horizontal=1;startSize=26;horizontalStack=0;resizeParent=1;resizeLast=0;collapsible=1;marginBottom=0;rounded=0;shadow=0;strokeWidth=1;labelBackgroundColor=none;fillColor=#09555B;strokeColor=#BAC8D3;fontColor=#EEEEEE;" vertex="1" parent="WIyWlLk6GJQsqaUBKTNV-1">
          <mxGeometry x="479" y="105" width="40" height="154" as="geometry">
            <mxRectangle x="230" y="140" width="160" height="26" as="alternateBounds" />
          </mxGeometry>
        </mxCell>
        <mxCell id="SqJzmu0Uh7ImOw3RZCEa-65" value="PK" style="text;align=left;verticalAlign=top;spacingLeft=4;spacingRight=4;overflow=hidden;rotatable=0;points=[[0,0.5],[1,0.5]];portConstraint=eastwest;labelBackgroundColor=none;fontColor=#EEEEEE;" vertex="1" parent="SqJzmu0Uh7ImOw3RZCEa-64">
          <mxGeometry y="26" width="40" height="26" as="geometry" />
        </mxCell>
        <mxCell id="SqJzmu0Uh7ImOw3RZCEa-66" value="" style="line;html=1;strokeWidth=1;align=left;verticalAlign=middle;spacingTop=-1;spacingLeft=3;spacingRight=3;rotatable=0;labelPosition=right;points=[];portConstraint=eastwest;labelBackgroundColor=none;fillColor=#09555B;strokeColor=#BAC8D3;fontColor=#EEEEEE;" vertex="1" parent="SqJzmu0Uh7ImOw3RZCEa-64">
          <mxGeometry y="52" width="40" height="8" as="geometry" />
        </mxCell>
        <mxCell id="SqJzmu0Uh7ImOw3RZCEa-67" value=" " style="text;align=left;verticalAlign=top;spacingLeft=4;spacingRight=4;overflow=hidden;rotatable=0;points=[[0,0.5],[1,0.5]];portConstraint=eastwest;rounded=0;shadow=0;html=0;labelBackgroundColor=none;fontColor=#EEEEEE;" vertex="1" parent="SqJzmu0Uh7ImOw3RZCEa-64">
          <mxGeometry y="60" width="40" height="26" as="geometry" />
        </mxCell>
        <mxCell id="SqJzmu0Uh7ImOw3RZCEa-68" value="" style="line;html=1;strokeWidth=1;align=left;verticalAlign=middle;spacingTop=-1;spacingLeft=3;spacingRight=3;rotatable=0;labelPosition=right;points=[];portConstraint=eastwest;labelBackgroundColor=none;fillColor=#09555B;strokeColor=#BAC8D3;fontColor=#EEEEEE;" vertex="1" parent="SqJzmu0Uh7ImOw3RZCEa-64">
          <mxGeometry y="86" width="40" height="8" as="geometry" />
        </mxCell>
        <mxCell id="SqJzmu0Uh7ImOw3RZCEa-69" value=" " style="text;align=left;verticalAlign=top;spacingLeft=4;spacingRight=4;overflow=hidden;rotatable=0;points=[[0,0.5],[1,0.5]];portConstraint=eastwest;rounded=0;shadow=0;html=0;labelBackgroundColor=none;fontColor=#EEEEEE;" vertex="1" parent="SqJzmu0Uh7ImOw3RZCEa-64">
          <mxGeometry y="94" width="40" height="26" as="geometry" />
        </mxCell>
        <mxCell id="SqJzmu0Uh7ImOw3RZCEa-70" value="" style="line;html=1;strokeWidth=1;align=left;verticalAlign=middle;spacingTop=-1;spacingLeft=3;spacingRight=3;rotatable=0;labelPosition=right;points=[];portConstraint=eastwest;labelBackgroundColor=none;fillColor=#09555B;strokeColor=#BAC8D3;fontColor=#EEEEEE;" vertex="1" parent="SqJzmu0Uh7ImOw3RZCEa-64">
          <mxGeometry y="120" width="40" height="8" as="geometry" />
        </mxCell>
        <mxCell id="SqJzmu0Uh7ImOw3RZCEa-71" value=" " style="text;align=left;verticalAlign=top;spacingLeft=4;spacingRight=4;overflow=hidden;rotatable=0;points=[[0,0.5],[1,0.5]];portConstraint=eastwest;rounded=0;shadow=0;html=0;labelBackgroundColor=none;fontColor=#EEEEEE;" vertex="1" parent="SqJzmu0Uh7ImOw3RZCEa-64">
          <mxGeometry y="128" width="40" height="26" as="geometry" />
        </mxCell>
        <mxCell id="SqJzmu0Uh7ImOw3RZCEa-72" value="" style="swimlane;fontStyle=0;align=center;verticalAlign=top;childLayout=stackLayout;horizontal=1;startSize=26;horizontalStack=0;resizeParent=1;resizeLast=0;collapsible=1;marginBottom=0;rounded=0;shadow=0;strokeWidth=1;labelBackgroundColor=none;fillColor=#09555B;strokeColor=#BAC8D3;fontColor=#EEEEEE;" vertex="1" parent="WIyWlLk6GJQsqaUBKTNV-1">
          <mxGeometry x="759" y="105" width="40" height="230" as="geometry">
            <mxRectangle x="230" y="140" width="160" height="26" as="alternateBounds" />
          </mxGeometry>
        </mxCell>
        <mxCell id="SqJzmu0Uh7ImOw3RZCEa-73" value="PK" style="text;align=left;verticalAlign=top;spacingLeft=4;spacingRight=4;overflow=hidden;rotatable=0;points=[[0,0.5],[1,0.5]];portConstraint=eastwest;labelBackgroundColor=none;fontColor=#EEEEEE;" vertex="1" parent="SqJzmu0Uh7ImOw3RZCEa-72">
          <mxGeometry y="26" width="40" height="26" as="geometry" />
        </mxCell>
        <mxCell id="SqJzmu0Uh7ImOw3RZCEa-74" value="" style="line;html=1;strokeWidth=1;align=left;verticalAlign=middle;spacingTop=-1;spacingLeft=3;spacingRight=3;rotatable=0;labelPosition=right;points=[];portConstraint=eastwest;labelBackgroundColor=none;fillColor=#09555B;strokeColor=#BAC8D3;fontColor=#EEEEEE;" vertex="1" parent="SqJzmu0Uh7ImOw3RZCEa-72">
          <mxGeometry y="52" width="40" height="8" as="geometry" />
        </mxCell>
        <mxCell id="SqJzmu0Uh7ImOw3RZCEa-75" value=" " style="text;align=left;verticalAlign=top;spacingLeft=4;spacingRight=4;overflow=hidden;rotatable=0;points=[[0,0.5],[1,0.5]];portConstraint=eastwest;rounded=0;shadow=0;html=0;labelBackgroundColor=none;fontColor=#EEEEEE;" vertex="1" parent="SqJzmu0Uh7ImOw3RZCEa-72">
          <mxGeometry y="60" width="40" height="26" as="geometry" />
        </mxCell>
        <mxCell id="SqJzmu0Uh7ImOw3RZCEa-76" value="" style="line;html=1;strokeWidth=1;align=left;verticalAlign=middle;spacingTop=-1;spacingLeft=3;spacingRight=3;rotatable=0;labelPosition=right;points=[];portConstraint=eastwest;labelBackgroundColor=none;fillColor=#09555B;strokeColor=#BAC8D3;fontColor=#EEEEEE;" vertex="1" parent="SqJzmu0Uh7ImOw3RZCEa-72">
          <mxGeometry y="86" width="40" height="8" as="geometry" />
        </mxCell>
        <mxCell id="SqJzmu0Uh7ImOw3RZCEa-77" value=" " style="text;align=left;verticalAlign=top;spacingLeft=4;spacingRight=4;overflow=hidden;rotatable=0;points=[[0,0.5],[1,0.5]];portConstraint=eastwest;rounded=0;shadow=0;html=0;labelBackgroundColor=none;fontColor=#EEEEEE;" vertex="1" parent="SqJzmu0Uh7ImOw3RZCEa-72">
          <mxGeometry y="94" width="40" height="26" as="geometry" />
        </mxCell>
        <mxCell id="SqJzmu0Uh7ImOw3RZCEa-78" value="" style="line;html=1;strokeWidth=1;align=left;verticalAlign=middle;spacingTop=-1;spacingLeft=3;spacingRight=3;rotatable=0;labelPosition=right;points=[];portConstraint=eastwest;labelBackgroundColor=none;fillColor=#09555B;strokeColor=#BAC8D3;fontColor=#EEEEEE;" vertex="1" parent="SqJzmu0Uh7ImOw3RZCEa-72">
          <mxGeometry y="120" width="40" height="8" as="geometry" />
        </mxCell>
        <mxCell id="SqJzmu0Uh7ImOw3RZCEa-80" value=" " style="text;align=left;verticalAlign=top;spacingLeft=4;spacingRight=4;overflow=hidden;rotatable=0;points=[[0,0.5],[1,0.5]];portConstraint=eastwest;rounded=0;shadow=0;html=0;labelBackgroundColor=none;fontColor=#EEEEEE;" vertex="1" parent="SqJzmu0Uh7ImOw3RZCEa-72">
          <mxGeometry y="128" width="40" height="26" as="geometry" />
        </mxCell>
        <mxCell id="SqJzmu0Uh7ImOw3RZCEa-81" value="" style="line;html=1;strokeWidth=1;align=left;verticalAlign=middle;spacingTop=-1;spacingLeft=3;spacingRight=3;rotatable=0;labelPosition=right;points=[];portConstraint=eastwest;labelBackgroundColor=none;fillColor=#09555B;strokeColor=#BAC8D3;fontColor=#EEEEEE;" vertex="1" parent="SqJzmu0Uh7ImOw3RZCEa-72">
          <mxGeometry y="154" width="40" height="8" as="geometry" />
        </mxCell>
        <mxCell id="SqJzmu0Uh7ImOw3RZCEa-86" value=" " style="text;align=left;verticalAlign=top;spacingLeft=4;spacingRight=4;overflow=hidden;rotatable=0;points=[[0,0.5],[1,0.5]];portConstraint=eastwest;rounded=0;shadow=0;html=0;labelBackgroundColor=none;fontColor=#EEEEEE;" vertex="1" parent="SqJzmu0Uh7ImOw3RZCEa-72">
          <mxGeometry y="162" width="40" height="26" as="geometry" />
        </mxCell>
        <mxCell id="SqJzmu0Uh7ImOw3RZCEa-83" value="" style="line;html=1;strokeWidth=1;align=left;verticalAlign=middle;spacingTop=-1;spacingLeft=3;spacingRight=3;rotatable=0;labelPosition=right;points=[];portConstraint=eastwest;labelBackgroundColor=none;fillColor=#09555B;strokeColor=#BAC8D3;fontColor=#EEEEEE;" vertex="1" parent="SqJzmu0Uh7ImOw3RZCEa-72">
          <mxGeometry y="188" width="40" height="8" as="geometry" />
        </mxCell>
        <mxCell id="SqJzmu0Uh7ImOw3RZCEa-85" value=" " style="text;align=left;verticalAlign=top;spacingLeft=4;spacingRight=4;overflow=hidden;rotatable=0;points=[[0,0.5],[1,0.5]];portConstraint=eastwest;rounded=0;shadow=0;html=0;labelBackgroundColor=none;fontColor=#EEEEEE;" vertex="1" parent="SqJzmu0Uh7ImOw3RZCEa-72">
          <mxGeometry y="196" width="40" height="34" as="geometry" />
        </mxCell>
        <mxCell id="SqJzmu0Uh7ImOw3RZCEa-88" value="" style="swimlane;fontStyle=0;align=center;verticalAlign=top;childLayout=stackLayout;horizontal=1;startSize=26;horizontalStack=0;resizeParent=1;resizeLast=0;collapsible=1;marginBottom=0;rounded=0;shadow=0;strokeWidth=1;labelBackgroundColor=none;fillColor=#09555B;strokeColor=#BAC8D3;fontColor=#EEEEEE;" vertex="1" parent="WIyWlLk6GJQsqaUBKTNV-1">
          <mxGeometry x="199" y="360" width="40" height="160" as="geometry">
            <mxRectangle x="230" y="140" width="160" height="26" as="alternateBounds" />
          </mxGeometry>
        </mxCell>
        <mxCell id="SqJzmu0Uh7ImOw3RZCEa-89" value="PK" style="text;align=left;verticalAlign=top;spacingLeft=4;spacingRight=4;overflow=hidden;rotatable=0;points=[[0,0.5],[1,0.5]];portConstraint=eastwest;labelBackgroundColor=none;fontColor=#EEEEEE;" vertex="1" parent="SqJzmu0Uh7ImOw3RZCEa-88">
          <mxGeometry y="26" width="40" height="26" as="geometry" />
        </mxCell>
        <mxCell id="SqJzmu0Uh7ImOw3RZCEa-90" value="" style="line;html=1;strokeWidth=1;align=left;verticalAlign=middle;spacingTop=-1;spacingLeft=3;spacingRight=3;rotatable=0;labelPosition=right;points=[];portConstraint=eastwest;labelBackgroundColor=none;fillColor=#09555B;strokeColor=#BAC8D3;fontColor=#EEEEEE;" vertex="1" parent="SqJzmu0Uh7ImOw3RZCEa-88">
          <mxGeometry y="52" width="40" height="8" as="geometry" />
        </mxCell>
        <mxCell id="SqJzmu0Uh7ImOw3RZCEa-91" value="FK" style="text;align=left;verticalAlign=top;spacingLeft=4;spacingRight=4;overflow=hidden;rotatable=0;points=[[0,0.5],[1,0.5]];portConstraint=eastwest;rounded=0;shadow=0;html=0;labelBackgroundColor=none;fontColor=#EEEEEE;" vertex="1" parent="SqJzmu0Uh7ImOw3RZCEa-88">
          <mxGeometry y="60" width="40" height="26" as="geometry" />
        </mxCell>
        <mxCell id="SqJzmu0Uh7ImOw3RZCEa-92" value="" style="line;html=1;strokeWidth=1;align=left;verticalAlign=middle;spacingTop=-1;spacingLeft=3;spacingRight=3;rotatable=0;labelPosition=right;points=[];portConstraint=eastwest;labelBackgroundColor=none;fillColor=#09555B;strokeColor=#BAC8D3;fontColor=#EEEEEE;" vertex="1" parent="SqJzmu0Uh7ImOw3RZCEa-88">
          <mxGeometry y="86" width="40" height="8" as="geometry" />
        </mxCell>
        <mxCell id="SqJzmu0Uh7ImOw3RZCEa-93" value=" " style="text;align=left;verticalAlign=top;spacingLeft=4;spacingRight=4;overflow=hidden;rotatable=0;points=[[0,0.5],[1,0.5]];portConstraint=eastwest;rounded=0;shadow=0;html=0;labelBackgroundColor=none;fontColor=#EEEEEE;" vertex="1" parent="SqJzmu0Uh7ImOw3RZCEa-88">
          <mxGeometry y="94" width="40" height="26" as="geometry" />
        </mxCell>
        <mxCell id="SqJzmu0Uh7ImOw3RZCEa-95" value=" " style="text;align=left;verticalAlign=top;spacingLeft=4;spacingRight=4;overflow=hidden;rotatable=0;points=[[0,0.5],[1,0.5]];portConstraint=eastwest;rounded=0;shadow=0;html=0;labelBackgroundColor=none;fontColor=#EEEEEE;" vertex="1" parent="SqJzmu0Uh7ImOw3RZCEa-88">
          <mxGeometry y="120" width="40" height="26" as="geometry" />
        </mxCell>
        <mxCell id="SqJzmu0Uh7ImOw3RZCEa-96" value="" style="swimlane;fontStyle=0;align=center;verticalAlign=top;childLayout=stackLayout;horizontal=1;startSize=26;horizontalStack=0;resizeParent=1;resizeLast=0;collapsible=1;marginBottom=0;rounded=0;shadow=0;strokeWidth=1;labelBackgroundColor=none;fillColor=#09555B;strokeColor=#BAC8D3;fontColor=#EEEEEE;" vertex="1" parent="WIyWlLk6GJQsqaUBKTNV-1">
          <mxGeometry x="479" y="360" width="40" height="160" as="geometry">
            <mxRectangle x="230" y="140" width="160" height="26" as="alternateBounds" />
          </mxGeometry>
        </mxCell>
        <mxCell id="SqJzmu0Uh7ImOw3RZCEa-97" value="PK" style="text;align=left;verticalAlign=top;spacingLeft=4;spacingRight=4;overflow=hidden;rotatable=0;points=[[0,0.5],[1,0.5]];portConstraint=eastwest;labelBackgroundColor=none;fontColor=#EEEEEE;" vertex="1" parent="SqJzmu0Uh7ImOw3RZCEa-96">
          <mxGeometry y="26" width="40" height="26" as="geometry" />
        </mxCell>
        <mxCell id="SqJzmu0Uh7ImOw3RZCEa-98" value="" style="line;html=1;strokeWidth=1;align=left;verticalAlign=middle;spacingTop=-1;spacingLeft=3;spacingRight=3;rotatable=0;labelPosition=right;points=[];portConstraint=eastwest;labelBackgroundColor=none;fillColor=#09555B;strokeColor=#BAC8D3;fontColor=#EEEEEE;" vertex="1" parent="SqJzmu0Uh7ImOw3RZCEa-96">
          <mxGeometry y="52" width="40" height="8" as="geometry" />
        </mxCell>
        <mxCell id="SqJzmu0Uh7ImOw3RZCEa-99" value="FK" style="text;align=left;verticalAlign=top;spacingLeft=4;spacingRight=4;overflow=hidden;rotatable=0;points=[[0,0.5],[1,0.5]];portConstraint=eastwest;rounded=0;shadow=0;html=0;labelBackgroundColor=none;fontColor=#EEEEEE;" vertex="1" parent="SqJzmu0Uh7ImOw3RZCEa-96">
          <mxGeometry y="60" width="40" height="26" as="geometry" />
        </mxCell>
        <mxCell id="SqJzmu0Uh7ImOw3RZCEa-100" value="" style="line;html=1;strokeWidth=1;align=left;verticalAlign=middle;spacingTop=-1;spacingLeft=3;spacingRight=3;rotatable=0;labelPosition=right;points=[];portConstraint=eastwest;labelBackgroundColor=none;fillColor=#09555B;strokeColor=#BAC8D3;fontColor=#EEEEEE;" vertex="1" parent="SqJzmu0Uh7ImOw3RZCEa-96">
          <mxGeometry y="86" width="40" height="8" as="geometry" />
        </mxCell>
        <mxCell id="SqJzmu0Uh7ImOw3RZCEa-101" value="FK" style="text;align=left;verticalAlign=top;spacingLeft=4;spacingRight=4;overflow=hidden;rotatable=0;points=[[0,0.5],[1,0.5]];portConstraint=eastwest;rounded=0;shadow=0;html=0;labelBackgroundColor=none;fontColor=#EEEEEE;" vertex="1" parent="SqJzmu0Uh7ImOw3RZCEa-96">
          <mxGeometry y="94" width="40" height="26" as="geometry" />
        </mxCell>
        <mxCell id="SqJzmu0Uh7ImOw3RZCEa-102" value="" style="line;html=1;strokeWidth=1;align=left;verticalAlign=middle;spacingTop=-1;spacingLeft=3;spacingRight=3;rotatable=0;labelPosition=right;points=[];portConstraint=eastwest;labelBackgroundColor=none;fillColor=#09555B;strokeColor=#BAC8D3;fontColor=#EEEEEE;" vertex="1" parent="SqJzmu0Uh7ImOw3RZCEa-96">
          <mxGeometry y="120" width="40" height="8" as="geometry" />
        </mxCell>
        <mxCell id="SqJzmu0Uh7ImOw3RZCEa-103" value=" " style="text;align=left;verticalAlign=top;spacingLeft=4;spacingRight=4;overflow=hidden;rotatable=0;points=[[0,0.5],[1,0.5]];portConstraint=eastwest;rounded=0;shadow=0;html=0;labelBackgroundColor=none;fontColor=#EEEEEE;" vertex="1" parent="SqJzmu0Uh7ImOw3RZCEa-96">
          <mxGeometry y="128" width="40" height="26" as="geometry" />
        </mxCell>
        <mxCell id="SqJzmu0Uh7ImOw3RZCEa-104" value="" style="swimlane;fontStyle=0;align=center;verticalAlign=top;childLayout=stackLayout;horizontal=1;startSize=26;horizontalStack=0;resizeParent=1;resizeLast=0;collapsible=1;marginBottom=0;rounded=0;shadow=0;strokeWidth=1;labelBackgroundColor=none;fillColor=#09555B;strokeColor=#BAC8D3;fontColor=#EEEEEE;" vertex="1" parent="WIyWlLk6GJQsqaUBKTNV-1">
          <mxGeometry x="759" y="360" width="40" height="160" as="geometry">
            <mxRectangle x="230" y="140" width="160" height="26" as="alternateBounds" />
          </mxGeometry>
        </mxCell>
        <mxCell id="SqJzmu0Uh7ImOw3RZCEa-105" value="PK" style="text;align=left;verticalAlign=top;spacingLeft=4;spacingRight=4;overflow=hidden;rotatable=0;points=[[0,0.5],[1,0.5]];portConstraint=eastwest;labelBackgroundColor=none;fontColor=#EEEEEE;" vertex="1" parent="SqJzmu0Uh7ImOw3RZCEa-104">
          <mxGeometry y="26" width="40" height="26" as="geometry" />
        </mxCell>
        <mxCell id="SqJzmu0Uh7ImOw3RZCEa-106" value="" style="line;html=1;strokeWidth=1;align=left;verticalAlign=middle;spacingTop=-1;spacingLeft=3;spacingRight=3;rotatable=0;labelPosition=right;points=[];portConstraint=eastwest;labelBackgroundColor=none;fillColor=#09555B;strokeColor=#BAC8D3;fontColor=#EEEEEE;" vertex="1" parent="SqJzmu0Uh7ImOw3RZCEa-104">
          <mxGeometry y="52" width="40" height="8" as="geometry" />
        </mxCell>
        <mxCell id="SqJzmu0Uh7ImOw3RZCEa-107" value=" " style="text;align=left;verticalAlign=top;spacingLeft=4;spacingRight=4;overflow=hidden;rotatable=0;points=[[0,0.5],[1,0.5]];portConstraint=eastwest;rounded=0;shadow=0;html=0;labelBackgroundColor=none;fontColor=#EEEEEE;" vertex="1" parent="SqJzmu0Uh7ImOw3RZCEa-104">
          <mxGeometry y="60" width="40" height="26" as="geometry" />
        </mxCell>
        <mxCell id="SqJzmu0Uh7ImOw3RZCEa-108" value="" style="line;html=1;strokeWidth=1;align=left;verticalAlign=middle;spacingTop=-1;spacingLeft=3;spacingRight=3;rotatable=0;labelPosition=right;points=[];portConstraint=eastwest;labelBackgroundColor=none;fillColor=#09555B;strokeColor=#BAC8D3;fontColor=#EEEEEE;" vertex="1" parent="SqJzmu0Uh7ImOw3RZCEa-104">
          <mxGeometry y="86" width="40" height="8" as="geometry" />
        </mxCell>
        <mxCell id="SqJzmu0Uh7ImOw3RZCEa-109" value=" " style="text;align=left;verticalAlign=top;spacingLeft=4;spacingRight=4;overflow=hidden;rotatable=0;points=[[0,0.5],[1,0.5]];portConstraint=eastwest;rounded=0;shadow=0;html=0;labelBackgroundColor=none;fontColor=#EEEEEE;" vertex="1" parent="SqJzmu0Uh7ImOw3RZCEa-104">
          <mxGeometry y="94" width="40" height="26" as="geometry" />
        </mxCell>
        <mxCell id="SqJzmu0Uh7ImOw3RZCEa-111" value=" " style="text;align=left;verticalAlign=top;spacingLeft=4;spacingRight=4;overflow=hidden;rotatable=0;points=[[0,0.5],[1,0.5]];portConstraint=eastwest;rounded=0;shadow=0;html=0;labelBackgroundColor=none;fontColor=#EEEEEE;" vertex="1" parent="SqJzmu0Uh7ImOw3RZCEa-104">
          <mxGeometry y="120" width="40" height="26" as="geometry" />
        </mxCell>
        <mxCell id="SqJzmu0Uh7ImOw3RZCEa-112" style="edgeStyle=orthogonalEdgeStyle;rounded=0;orthogonalLoop=1;jettySize=auto;html=1;exitX=1;exitY=0.5;exitDx=0;exitDy=0;strokeColor=#0B4D6A;entryX=0;entryY=0.5;entryDx=0;entryDy=0;" edge="1" parent="WIyWlLk6GJQsqaUBKTNV-1" source="SqJzmu0Uh7ImOw3RZCEa-91" target="zkfFHV4jXpPFQw0GAbJ--18">
          <mxGeometry relative="1" as="geometry">
            <mxPoint x="299" y="145" as="targetPoint" />
          </mxGeometry>
        </mxCell>
        <mxCell id="SqJzmu0Uh7ImOw3RZCEa-121" value="&lt;u&gt;&lt;font style=&quot;font-size: 17px;&quot;&gt;ASSIGNMENT 2 - LOGICAL MODEL - SMALL BOOKSTORE&lt;/font&gt;&lt;/u&gt;" style="rounded=0;whiteSpace=wrap;html=1;strokeColor=#BAC8D3;fontColor=#EEEEEE;fillColor=#09555B;" vertex="1" parent="WIyWlLk6GJQsqaUBKTNV-1">
          <mxGeometry x="39" y="10" width="760" height="60" as="geometry" />
        </mxCell>
        <mxCell id="SqJzmu0Uh7ImOw3RZCEa-122" value="Employee_Shift" style="swimlane;fontStyle=0;align=center;verticalAlign=top;childLayout=stackLayout;horizontal=1;startSize=26;horizontalStack=0;resizeParent=1;resizeLast=0;collapsible=1;marginBottom=0;rounded=0;shadow=0;strokeWidth=1;labelBackgroundColor=none;fillColor=#09555B;strokeColor=#BAC8D3;fontColor=#EEEEEE;" vertex="1" parent="WIyWlLk6GJQsqaUBKTNV-1">
          <mxGeometry x="39" y="585" width="190" height="205" as="geometry">
            <mxRectangle x="230" y="140" width="160" height="26" as="alternateBounds" />
          </mxGeometry>
        </mxCell>
        <mxCell id="SqJzmu0Uh7ImOw3RZCEa-123" value="shift_id" style="text;align=left;verticalAlign=top;spacingLeft=4;spacingRight=4;overflow=hidden;rotatable=0;points=[[0,0.5],[1,0.5]];portConstraint=eastwest;labelBackgroundColor=none;fontColor=#EEEEEE;" vertex="1" parent="SqJzmu0Uh7ImOw3RZCEa-122">
          <mxGeometry y="26" width="190" height="26" as="geometry" />
        </mxCell>
        <mxCell id="SqJzmu0Uh7ImOw3RZCEa-124" value="" style="line;html=1;strokeWidth=1;align=left;verticalAlign=middle;spacingTop=-1;spacingLeft=3;spacingRight=3;rotatable=0;labelPosition=right;points=[];portConstraint=eastwest;labelBackgroundColor=none;fillColor=#09555B;strokeColor=#BAC8D3;fontColor=#EEEEEE;" vertex="1" parent="SqJzmu0Uh7ImOw3RZCEa-122">
          <mxGeometry y="52" width="190" height="8" as="geometry" />
        </mxCell>
        <mxCell id="SqJzmu0Uh7ImOw3RZCEa-125" value="employee_id" style="text;align=left;verticalAlign=top;spacingLeft=4;spacingRight=4;overflow=hidden;rotatable=0;points=[[0,0.5],[1,0.5]];portConstraint=eastwest;rounded=0;shadow=0;html=0;labelBackgroundColor=none;fontColor=#EEEEEE;" vertex="1" parent="SqJzmu0Uh7ImOw3RZCEa-122">
          <mxGeometry y="60" width="190" height="26" as="geometry" />
        </mxCell>
        <mxCell id="SqJzmu0Uh7ImOw3RZCEa-126" value="" style="line;html=1;strokeWidth=1;align=left;verticalAlign=middle;spacingTop=-1;spacingLeft=3;spacingRight=3;rotatable=0;labelPosition=right;points=[];portConstraint=eastwest;labelBackgroundColor=none;fillColor=#09555B;strokeColor=#BAC8D3;fontColor=#EEEEEE;" vertex="1" parent="SqJzmu0Uh7ImOw3RZCEa-122">
          <mxGeometry y="86" width="190" height="8" as="geometry" />
        </mxCell>
        <mxCell id="SqJzmu0Uh7ImOw3RZCEa-127" value="shift_type (Morning / Evening)" style="text;align=left;verticalAlign=top;spacingLeft=4;spacingRight=4;overflow=hidden;rotatable=0;points=[[0,0.5],[1,0.5]];portConstraint=eastwest;labelBackgroundColor=none;fontColor=#EEEEEE;" vertex="1" parent="SqJzmu0Uh7ImOw3RZCEa-122">
          <mxGeometry y="94" width="190" height="26" as="geometry" />
        </mxCell>
        <mxCell id="SqJzmu0Uh7ImOw3RZCEa-138" value="" style="line;html=1;strokeWidth=1;align=left;verticalAlign=middle;spacingTop=-1;spacingLeft=3;spacingRight=3;rotatable=0;labelPosition=right;points=[];portConstraint=eastwest;labelBackgroundColor=none;fillColor=#09555B;strokeColor=#BAC8D3;fontColor=#EEEEEE;" vertex="1" parent="SqJzmu0Uh7ImOw3RZCEa-122">
          <mxGeometry y="120" width="190" height="8" as="geometry" />
        </mxCell>
        <mxCell id="SqJzmu0Uh7ImOw3RZCEa-135" value="start_time" style="text;align=left;verticalAlign=top;spacingLeft=4;spacingRight=4;overflow=hidden;rotatable=0;points=[[0,0.5],[1,0.5]];portConstraint=eastwest;labelBackgroundColor=none;fontColor=#EEEEEE;" vertex="1" parent="SqJzmu0Uh7ImOw3RZCEa-122">
          <mxGeometry y="128" width="190" height="26" as="geometry" />
        </mxCell>
        <mxCell id="SqJzmu0Uh7ImOw3RZCEa-139" value="" style="line;html=1;strokeWidth=1;align=left;verticalAlign=middle;spacingTop=-1;spacingLeft=3;spacingRight=3;rotatable=0;labelPosition=right;points=[];portConstraint=eastwest;labelBackgroundColor=none;fillColor=#09555B;strokeColor=#BAC8D3;fontColor=#EEEEEE;" vertex="1" parent="SqJzmu0Uh7ImOw3RZCEa-122">
          <mxGeometry y="154" width="190" height="8" as="geometry" />
        </mxCell>
        <mxCell id="SqJzmu0Uh7ImOw3RZCEa-136" value="end_time" style="text;align=left;verticalAlign=top;spacingLeft=4;spacingRight=4;overflow=hidden;rotatable=0;points=[[0,0.5],[1,0.5]];portConstraint=eastwest;labelBackgroundColor=none;fontColor=#EEEEEE;" vertex="1" parent="SqJzmu0Uh7ImOw3RZCEa-122">
          <mxGeometry y="162" width="190" height="26" as="geometry" />
        </mxCell>
        <mxCell id="SqJzmu0Uh7ImOw3RZCEa-128" value="" style="swimlane;fontStyle=0;align=center;verticalAlign=top;childLayout=stackLayout;horizontal=1;startSize=26;horizontalStack=0;resizeParent=1;resizeLast=0;collapsible=1;marginBottom=0;rounded=0;shadow=0;strokeWidth=1;labelBackgroundColor=none;fillColor=#09555B;strokeColor=#BAC8D3;fontColor=#EEEEEE;" vertex="1" parent="WIyWlLk6GJQsqaUBKTNV-1">
          <mxGeometry x="229" y="585" width="40" height="205" as="geometry">
            <mxRectangle x="230" y="140" width="160" height="26" as="alternateBounds" />
          </mxGeometry>
        </mxCell>
        <mxCell id="SqJzmu0Uh7ImOw3RZCEa-129" value="PK" style="text;align=left;verticalAlign=top;spacingLeft=4;spacingRight=4;overflow=hidden;rotatable=0;points=[[0,0.5],[1,0.5]];portConstraint=eastwest;labelBackgroundColor=none;fontColor=#EEEEEE;" vertex="1" parent="SqJzmu0Uh7ImOw3RZCEa-128">
          <mxGeometry y="26" width="40" height="26" as="geometry" />
        </mxCell>
        <mxCell id="SqJzmu0Uh7ImOw3RZCEa-130" value="" style="line;html=1;strokeWidth=1;align=left;verticalAlign=middle;spacingTop=-1;spacingLeft=3;spacingRight=3;rotatable=0;labelPosition=right;points=[];portConstraint=eastwest;labelBackgroundColor=none;fillColor=#09555B;strokeColor=#BAC8D3;fontColor=#EEEEEE;" vertex="1" parent="SqJzmu0Uh7ImOw3RZCEa-128">
          <mxGeometry y="52" width="40" height="8" as="geometry" />
        </mxCell>
        <mxCell id="SqJzmu0Uh7ImOw3RZCEa-131" value="FK" style="text;align=left;verticalAlign=top;spacingLeft=4;spacingRight=4;overflow=hidden;rotatable=0;points=[[0,0.5],[1,0.5]];portConstraint=eastwest;rounded=0;shadow=0;html=0;labelBackgroundColor=none;fontColor=#EEEEEE;" vertex="1" parent="SqJzmu0Uh7ImOw3RZCEa-128">
          <mxGeometry y="60" width="40" height="26" as="geometry" />
        </mxCell>
        <mxCell id="SqJzmu0Uh7ImOw3RZCEa-132" value="" style="line;html=1;strokeWidth=1;align=left;verticalAlign=middle;spacingTop=-1;spacingLeft=3;spacingRight=3;rotatable=0;labelPosition=right;points=[];portConstraint=eastwest;labelBackgroundColor=none;fillColor=#09555B;strokeColor=#BAC8D3;fontColor=#EEEEEE;" vertex="1" parent="SqJzmu0Uh7ImOw3RZCEa-128">
          <mxGeometry y="86" width="40" height="8" as="geometry" />
        </mxCell>
        <mxCell id="SqJzmu0Uh7ImOw3RZCEa-133" value=" " style="text;align=left;verticalAlign=top;spacingLeft=4;spacingRight=4;overflow=hidden;rotatable=0;points=[[0,0.5],[1,0.5]];portConstraint=eastwest;rounded=0;shadow=0;html=0;labelBackgroundColor=none;fontColor=#EEEEEE;" vertex="1" parent="SqJzmu0Uh7ImOw3RZCEa-128">
          <mxGeometry y="94" width="40" height="26" as="geometry" />
        </mxCell>
        <mxCell id="SqJzmu0Uh7ImOw3RZCEa-140" value="" style="line;html=1;strokeWidth=1;align=left;verticalAlign=middle;spacingTop=-1;spacingLeft=3;spacingRight=3;rotatable=0;labelPosition=right;points=[];portConstraint=eastwest;labelBackgroundColor=none;fillColor=#09555B;strokeColor=#BAC8D3;fontColor=#EEEEEE;" vertex="1" parent="SqJzmu0Uh7ImOw3RZCEa-128">
          <mxGeometry y="120" width="40" height="8" as="geometry" />
        </mxCell>
        <mxCell id="SqJzmu0Uh7ImOw3RZCEa-134" value=" " style="text;align=left;verticalAlign=top;spacingLeft=4;spacingRight=4;overflow=hidden;rotatable=0;points=[[0,0.5],[1,0.5]];portConstraint=eastwest;rounded=0;shadow=0;html=0;labelBackgroundColor=none;fontColor=#EEEEEE;" vertex="1" parent="SqJzmu0Uh7ImOw3RZCEa-128">
          <mxGeometry y="128" width="40" height="26" as="geometry" />
        </mxCell>
        <mxCell id="SqJzmu0Uh7ImOw3RZCEa-141" value="" style="line;html=1;strokeWidth=1;align=left;verticalAlign=middle;spacingTop=-1;spacingLeft=3;spacingRight=3;rotatable=0;labelPosition=right;points=[];portConstraint=eastwest;labelBackgroundColor=none;fillColor=#09555B;strokeColor=#BAC8D3;fontColor=#EEEEEE;" vertex="1" parent="SqJzmu0Uh7ImOw3RZCEa-128">
          <mxGeometry y="154" width="40" height="8" as="geometry" />
        </mxCell>
        <mxCell id="SqJzmu0Uh7ImOw3RZCEa-146" style="edgeStyle=orthogonalEdgeStyle;rounded=0;orthogonalLoop=1;jettySize=auto;html=1;exitX=0;exitY=0.5;exitDx=0;exitDy=0;entryX=0;entryY=0.5;entryDx=0;entryDy=0;strokeColor=#0B4D6A;" edge="1" parent="WIyWlLk6GJQsqaUBKTNV-1" source="SqJzmu0Uh7ImOw3RZCEa-1" target="SqJzmu0Uh7ImOw3RZCEa-41">
          <mxGeometry relative="1" as="geometry">
            <Array as="points">
              <mxPoint x="560" y="144" />
              <mxPoint x="560" y="320" />
              <mxPoint x="299" y="320" />
              <mxPoint x="299" y="433" />
            </Array>
          </mxGeometry>
        </mxCell>
        <mxCell id="SqJzmu0Uh7ImOw3RZCEa-147" style="edgeStyle=orthogonalEdgeStyle;rounded=0;orthogonalLoop=1;jettySize=auto;html=1;exitX=0;exitY=0.5;exitDx=0;exitDy=0;entryX=0;entryY=0.5;entryDx=0;entryDy=0;strokeColor=#0B4D6A;" edge="1" parent="WIyWlLk6GJQsqaUBKTNV-1" source="zkfFHV4jXpPFQw0GAbJ--7" target="SqJzmu0Uh7ImOw3RZCEa-40">
          <mxGeometry relative="1" as="geometry">
            <Array as="points">
              <mxPoint x="19" y="399" />
              <mxPoint x="19" y="560" />
              <mxPoint x="280" y="560" />
              <mxPoint x="280" y="467" />
            </Array>
          </mxGeometry>
        </mxCell>
        <mxCell id="SqJzmu0Uh7ImOw3RZCEa-148" style="edgeStyle=orthogonalEdgeStyle;rounded=0;orthogonalLoop=1;jettySize=auto;html=1;exitX=0;exitY=0.5;exitDx=0;exitDy=0;entryX=0;entryY=0.5;entryDx=0;entryDy=0;strokeColor=#0B4D6A;" edge="1" parent="WIyWlLk6GJQsqaUBKTNV-1" source="zkfFHV4jXpPFQw0GAbJ--1" target="SqJzmu0Uh7ImOw3RZCEa-125">
          <mxGeometry relative="1" as="geometry">
            <mxPoint x="10" y="130" as="sourcePoint" />
            <mxPoint x="10" y="644" as="targetPoint" />
            <Array as="points">
              <mxPoint x="10" y="144" />
              <mxPoint x="10" y="658" />
            </Array>
          </mxGeometry>
        </mxCell>
        <mxCell id="SqJzmu0Uh7ImOw3RZCEa-149" value="Customer_Address" style="swimlane;fontStyle=0;align=center;verticalAlign=top;childLayout=stackLayout;horizontal=1;startSize=26;horizontalStack=0;resizeParent=1;resizeLast=0;collapsible=1;marginBottom=0;rounded=0;shadow=0;strokeWidth=1;labelBackgroundColor=none;fillColor=#09555B;strokeColor=#BAC8D3;fontColor=#EEEEEE;" vertex="1" parent="WIyWlLk6GJQsqaUBKTNV-1">
          <mxGeometry x="319" y="585" width="190" height="205" as="geometry">
            <mxRectangle x="230" y="140" width="160" height="26" as="alternateBounds" />
          </mxGeometry>
        </mxCell>
        <mxCell id="SqJzmu0Uh7ImOw3RZCEa-150" value="customer_id" style="text;align=left;verticalAlign=top;spacingLeft=4;spacingRight=4;overflow=hidden;rotatable=0;points=[[0,0.5],[1,0.5]];portConstraint=eastwest;labelBackgroundColor=none;fontColor=#EEEEEE;" vertex="1" parent="SqJzmu0Uh7ImOw3RZCEa-149">
          <mxGeometry y="26" width="190" height="26" as="geometry" />
        </mxCell>
        <mxCell id="SqJzmu0Uh7ImOw3RZCEa-151" value="" style="line;html=1;strokeWidth=1;align=left;verticalAlign=middle;spacingTop=-1;spacingLeft=3;spacingRight=3;rotatable=0;labelPosition=right;points=[];portConstraint=eastwest;labelBackgroundColor=none;fillColor=#09555B;strokeColor=#BAC8D3;fontColor=#EEEEEE;" vertex="1" parent="SqJzmu0Uh7ImOw3RZCEa-149">
          <mxGeometry y="52" width="190" height="8" as="geometry" />
        </mxCell>
        <mxCell id="SqJzmu0Uh7ImOw3RZCEa-152" value="address" style="text;align=left;verticalAlign=top;spacingLeft=4;spacingRight=4;overflow=hidden;rotatable=0;points=[[0,0.5],[1,0.5]];portConstraint=eastwest;rounded=0;shadow=0;html=0;labelBackgroundColor=none;fontColor=#EEEEEE;" vertex="1" parent="SqJzmu0Uh7ImOw3RZCEa-149">
          <mxGeometry y="60" width="190" height="26" as="geometry" />
        </mxCell>
        <mxCell id="SqJzmu0Uh7ImOw3RZCEa-153" value="" style="line;html=1;strokeWidth=1;align=left;verticalAlign=middle;spacingTop=-1;spacingLeft=3;spacingRight=3;rotatable=0;labelPosition=right;points=[];portConstraint=eastwest;labelBackgroundColor=none;fillColor=#09555B;strokeColor=#BAC8D3;fontColor=#EEEEEE;" vertex="1" parent="SqJzmu0Uh7ImOw3RZCEa-149">
          <mxGeometry y="86" width="190" height="8" as="geometry" />
        </mxCell>
        <mxCell id="SqJzmu0Uh7ImOw3RZCEa-154" value="city" style="text;align=left;verticalAlign=top;spacingLeft=4;spacingRight=4;overflow=hidden;rotatable=0;points=[[0,0.5],[1,0.5]];portConstraint=eastwest;labelBackgroundColor=none;fontColor=#EEEEEE;" vertex="1" parent="SqJzmu0Uh7ImOw3RZCEa-149">
          <mxGeometry y="94" width="190" height="26" as="geometry" />
        </mxCell>
        <mxCell id="SqJzmu0Uh7ImOw3RZCEa-155" value="" style="line;html=1;strokeWidth=1;align=left;verticalAlign=middle;spacingTop=-1;spacingLeft=3;spacingRight=3;rotatable=0;labelPosition=right;points=[];portConstraint=eastwest;labelBackgroundColor=none;fillColor=#09555B;strokeColor=#BAC8D3;fontColor=#EEEEEE;" vertex="1" parent="SqJzmu0Uh7ImOw3RZCEa-149">
          <mxGeometry y="120" width="190" height="8" as="geometry" />
        </mxCell>
        <mxCell id="SqJzmu0Uh7ImOw3RZCEa-156" value="state" style="text;align=left;verticalAlign=top;spacingLeft=4;spacingRight=4;overflow=hidden;rotatable=0;points=[[0,0.5],[1,0.5]];portConstraint=eastwest;labelBackgroundColor=none;fontColor=#EEEEEE;" vertex="1" parent="SqJzmu0Uh7ImOw3RZCEa-149">
          <mxGeometry y="128" width="190" height="26" as="geometry" />
        </mxCell>
        <mxCell id="SqJzmu0Uh7ImOw3RZCEa-157" value="" style="line;html=1;strokeWidth=1;align=left;verticalAlign=middle;spacingTop=-1;spacingLeft=3;spacingRight=3;rotatable=0;labelPosition=right;points=[];portConstraint=eastwest;labelBackgroundColor=none;fillColor=#09555B;strokeColor=#BAC8D3;fontColor=#EEEEEE;" vertex="1" parent="SqJzmu0Uh7ImOw3RZCEa-149">
          <mxGeometry y="154" width="190" height="8" as="geometry" />
        </mxCell>
        <mxCell id="SqJzmu0Uh7ImOw3RZCEa-158" value="postal_code" style="text;align=left;verticalAlign=top;spacingLeft=4;spacingRight=4;overflow=hidden;rotatable=0;points=[[0,0.5],[1,0.5]];portConstraint=eastwest;labelBackgroundColor=none;fontColor=#EEEEEE;" vertex="1" parent="SqJzmu0Uh7ImOw3RZCEa-149">
          <mxGeometry y="162" width="190" height="26" as="geometry" />
        </mxCell>
        <mxCell id="SqJzmu0Uh7ImOw3RZCEa-159" value="" style="swimlane;fontStyle=0;align=center;verticalAlign=top;childLayout=stackLayout;horizontal=1;startSize=26;horizontalStack=0;resizeParent=1;resizeLast=0;collapsible=1;marginBottom=0;rounded=0;shadow=0;strokeWidth=1;labelBackgroundColor=none;fillColor=#09555B;strokeColor=#BAC8D3;fontColor=#EEEEEE;" vertex="1" parent="WIyWlLk6GJQsqaUBKTNV-1">
          <mxGeometry x="509" y="585" width="40" height="205" as="geometry">
            <mxRectangle x="230" y="140" width="160" height="26" as="alternateBounds" />
          </mxGeometry>
        </mxCell>
        <mxCell id="SqJzmu0Uh7ImOw3RZCEa-160" value="PK" style="text;align=left;verticalAlign=top;spacingLeft=4;spacingRight=4;overflow=hidden;rotatable=0;points=[[0,0.5],[1,0.5]];portConstraint=eastwest;labelBackgroundColor=none;fontColor=#EEEEEE;" vertex="1" parent="SqJzmu0Uh7ImOw3RZCEa-159">
          <mxGeometry y="26" width="40" height="26" as="geometry" />
        </mxCell>
        <mxCell id="SqJzmu0Uh7ImOw3RZCEa-161" value="" style="line;html=1;strokeWidth=1;align=left;verticalAlign=middle;spacingTop=-1;spacingLeft=3;spacingRight=3;rotatable=0;labelPosition=right;points=[];portConstraint=eastwest;labelBackgroundColor=none;fillColor=#09555B;strokeColor=#BAC8D3;fontColor=#EEEEEE;" vertex="1" parent="SqJzmu0Uh7ImOw3RZCEa-159">
          <mxGeometry y="52" width="40" height="8" as="geometry" />
        </mxCell>
        <mxCell id="SqJzmu0Uh7ImOw3RZCEa-162" value=" " style="text;align=left;verticalAlign=top;spacingLeft=4;spacingRight=4;overflow=hidden;rotatable=0;points=[[0,0.5],[1,0.5]];portConstraint=eastwest;rounded=0;shadow=0;html=0;labelBackgroundColor=none;fontColor=#EEEEEE;" vertex="1" parent="SqJzmu0Uh7ImOw3RZCEa-159">
          <mxGeometry y="60" width="40" height="26" as="geometry" />
        </mxCell>
        <mxCell id="SqJzmu0Uh7ImOw3RZCEa-163" value="" style="line;html=1;strokeWidth=1;align=left;verticalAlign=middle;spacingTop=-1;spacingLeft=3;spacingRight=3;rotatable=0;labelPosition=right;points=[];portConstraint=eastwest;labelBackgroundColor=none;fillColor=#09555B;strokeColor=#BAC8D3;fontColor=#EEEEEE;" vertex="1" parent="SqJzmu0Uh7ImOw3RZCEa-159">
          <mxGeometry y="86" width="40" height="8" as="geometry" />
        </mxCell>
        <mxCell id="SqJzmu0Uh7ImOw3RZCEa-164" value=" " style="text;align=left;verticalAlign=top;spacingLeft=4;spacingRight=4;overflow=hidden;rotatable=0;points=[[0,0.5],[1,0.5]];portConstraint=eastwest;rounded=0;shadow=0;html=0;labelBackgroundColor=none;fontColor=#EEEEEE;" vertex="1" parent="SqJzmu0Uh7ImOw3RZCEa-159">
          <mxGeometry y="94" width="40" height="26" as="geometry" />
        </mxCell>
        <mxCell id="SqJzmu0Uh7ImOw3RZCEa-165" value="" style="line;html=1;strokeWidth=1;align=left;verticalAlign=middle;spacingTop=-1;spacingLeft=3;spacingRight=3;rotatable=0;labelPosition=right;points=[];portConstraint=eastwest;labelBackgroundColor=none;fillColor=#09555B;strokeColor=#BAC8D3;fontColor=#EEEEEE;" vertex="1" parent="SqJzmu0Uh7ImOw3RZCEa-159">
          <mxGeometry y="120" width="40" height="8" as="geometry" />
        </mxCell>
        <mxCell id="SqJzmu0Uh7ImOw3RZCEa-166" value=" " style="text;align=left;verticalAlign=top;spacingLeft=4;spacingRight=4;overflow=hidden;rotatable=0;points=[[0,0.5],[1,0.5]];portConstraint=eastwest;rounded=0;shadow=0;html=0;labelBackgroundColor=none;fontColor=#EEEEEE;" vertex="1" parent="SqJzmu0Uh7ImOw3RZCEa-159">
          <mxGeometry y="128" width="40" height="26" as="geometry" />
        </mxCell>
        <mxCell id="SqJzmu0Uh7ImOw3RZCEa-167" value="" style="line;html=1;strokeWidth=1;align=left;verticalAlign=middle;spacingTop=-1;spacingLeft=3;spacingRight=3;rotatable=0;labelPosition=right;points=[];portConstraint=eastwest;labelBackgroundColor=none;fillColor=#09555B;strokeColor=#BAC8D3;fontColor=#EEEEEE;" vertex="1" parent="SqJzmu0Uh7ImOw3RZCEa-159">
          <mxGeometry y="154" width="40" height="8" as="geometry" />
        </mxCell>
        <mxCell id="SqJzmu0Uh7ImOw3RZCEa-168" value="Customer_Address_History" style="swimlane;fontStyle=0;align=center;verticalAlign=top;childLayout=stackLayout;horizontal=1;startSize=26;horizontalStack=0;resizeParent=1;resizeLast=0;collapsible=1;marginBottom=0;rounded=0;shadow=0;strokeWidth=1;labelBackgroundColor=none;fillColor=#09555B;strokeColor=#BAC8D3;fontColor=#EEEEEE;" vertex="1" parent="WIyWlLk6GJQsqaUBKTNV-1">
          <mxGeometry x="590" y="585" width="190" height="265" as="geometry">
            <mxRectangle x="230" y="140" width="160" height="26" as="alternateBounds" />
          </mxGeometry>
        </mxCell>
        <mxCell id="SqJzmu0Uh7ImOw3RZCEa-169" value="address_id" style="text;align=left;verticalAlign=top;spacingLeft=4;spacingRight=4;overflow=hidden;rotatable=0;points=[[0,0.5],[1,0.5]];portConstraint=eastwest;labelBackgroundColor=none;fontColor=#EEEEEE;" vertex="1" parent="SqJzmu0Uh7ImOw3RZCEa-168">
          <mxGeometry y="26" width="190" height="26" as="geometry" />
        </mxCell>
        <mxCell id="SqJzmu0Uh7ImOw3RZCEa-170" value="" style="line;html=1;strokeWidth=1;align=left;verticalAlign=middle;spacingTop=-1;spacingLeft=3;spacingRight=3;rotatable=0;labelPosition=right;points=[];portConstraint=eastwest;labelBackgroundColor=none;fillColor=#09555B;strokeColor=#BAC8D3;fontColor=#EEEEEE;" vertex="1" parent="SqJzmu0Uh7ImOw3RZCEa-168">
          <mxGeometry y="52" width="190" height="8" as="geometry" />
        </mxCell>
        <mxCell id="SqJzmu0Uh7ImOw3RZCEa-171" value="customer_id" style="text;align=left;verticalAlign=top;spacingLeft=4;spacingRight=4;overflow=hidden;rotatable=0;points=[[0,0.5],[1,0.5]];portConstraint=eastwest;rounded=0;shadow=0;html=0;labelBackgroundColor=none;fontColor=#EEEEEE;" vertex="1" parent="SqJzmu0Uh7ImOw3RZCEa-168">
          <mxGeometry y="60" width="190" height="26" as="geometry" />
        </mxCell>
        <mxCell id="SqJzmu0Uh7ImOw3RZCEa-172" value="" style="line;html=1;strokeWidth=1;align=left;verticalAlign=middle;spacingTop=-1;spacingLeft=3;spacingRight=3;rotatable=0;labelPosition=right;points=[];portConstraint=eastwest;labelBackgroundColor=none;fillColor=#09555B;strokeColor=#BAC8D3;fontColor=#EEEEEE;" vertex="1" parent="SqJzmu0Uh7ImOw3RZCEa-168">
          <mxGeometry y="86" width="190" height="8" as="geometry" />
        </mxCell>
        <mxCell id="SqJzmu0Uh7ImOw3RZCEa-173" value="city" style="text;align=left;verticalAlign=top;spacingLeft=4;spacingRight=4;overflow=hidden;rotatable=0;points=[[0,0.5],[1,0.5]];portConstraint=eastwest;labelBackgroundColor=none;fontColor=#EEEEEE;" vertex="1" parent="SqJzmu0Uh7ImOw3RZCEa-168">
          <mxGeometry y="94" width="190" height="26" as="geometry" />
        </mxCell>
        <mxCell id="SqJzmu0Uh7ImOw3RZCEa-174" value="" style="line;html=1;strokeWidth=1;align=left;verticalAlign=middle;spacingTop=-1;spacingLeft=3;spacingRight=3;rotatable=0;labelPosition=right;points=[];portConstraint=eastwest;labelBackgroundColor=none;fillColor=#09555B;strokeColor=#BAC8D3;fontColor=#EEEEEE;" vertex="1" parent="SqJzmu0Uh7ImOw3RZCEa-168">
          <mxGeometry y="120" width="190" height="8" as="geometry" />
        </mxCell>
        <mxCell id="SqJzmu0Uh7ImOw3RZCEa-175" value="state" style="text;align=left;verticalAlign=top;spacingLeft=4;spacingRight=4;overflow=hidden;rotatable=0;points=[[0,0.5],[1,0.5]];portConstraint=eastwest;labelBackgroundColor=none;fontColor=#EEEEEE;" vertex="1" parent="SqJzmu0Uh7ImOw3RZCEa-168">
          <mxGeometry y="128" width="190" height="26" as="geometry" />
        </mxCell>
        <mxCell id="SqJzmu0Uh7ImOw3RZCEa-176" value="" style="line;html=1;strokeWidth=1;align=left;verticalAlign=middle;spacingTop=-1;spacingLeft=3;spacingRight=3;rotatable=0;labelPosition=right;points=[];portConstraint=eastwest;labelBackgroundColor=none;fillColor=#09555B;strokeColor=#BAC8D3;fontColor=#EEEEEE;" vertex="1" parent="SqJzmu0Uh7ImOw3RZCEa-168">
          <mxGeometry y="154" width="190" height="8" as="geometry" />
        </mxCell>
        <mxCell id="SqJzmu0Uh7ImOw3RZCEa-177" value="postal_code" style="text;align=left;verticalAlign=top;spacingLeft=4;spacingRight=4;overflow=hidden;rotatable=0;points=[[0,0.5],[1,0.5]];portConstraint=eastwest;labelBackgroundColor=none;fontColor=#EEEEEE;" vertex="1" parent="SqJzmu0Uh7ImOw3RZCEa-168">
          <mxGeometry y="162" width="190" height="26" as="geometry" />
        </mxCell>
        <mxCell id="SqJzmu0Uh7ImOw3RZCEa-191" value="" style="line;html=1;strokeWidth=1;align=left;verticalAlign=middle;spacingTop=-1;spacingLeft=3;spacingRight=3;rotatable=0;labelPosition=right;points=[];portConstraint=eastwest;labelBackgroundColor=none;fillColor=#09555B;strokeColor=#BAC8D3;fontColor=#EEEEEE;" vertex="1" parent="SqJzmu0Uh7ImOw3RZCEa-168">
          <mxGeometry y="188" width="190" height="8" as="geometry" />
        </mxCell>
        <mxCell id="SqJzmu0Uh7ImOw3RZCEa-189" value="valid_from" style="text;align=left;verticalAlign=top;spacingLeft=4;spacingRight=4;overflow=hidden;rotatable=0;points=[[0,0.5],[1,0.5]];portConstraint=eastwest;labelBackgroundColor=none;fontColor=#EEEEEE;" vertex="1" parent="SqJzmu0Uh7ImOw3RZCEa-168">
          <mxGeometry y="196" width="190" height="26" as="geometry" />
        </mxCell>
        <mxCell id="SqJzmu0Uh7ImOw3RZCEa-192" value="" style="line;html=1;strokeWidth=1;align=left;verticalAlign=middle;spacingTop=-1;spacingLeft=3;spacingRight=3;rotatable=0;labelPosition=right;points=[];portConstraint=eastwest;labelBackgroundColor=none;fillColor=#09555B;strokeColor=#BAC8D3;fontColor=#EEEEEE;" vertex="1" parent="SqJzmu0Uh7ImOw3RZCEa-168">
          <mxGeometry y="222" width="190" height="8" as="geometry" />
        </mxCell>
        <mxCell id="SqJzmu0Uh7ImOw3RZCEa-190" value="valid_to" style="text;align=left;verticalAlign=top;spacingLeft=4;spacingRight=4;overflow=hidden;rotatable=0;points=[[0,0.5],[1,0.5]];portConstraint=eastwest;labelBackgroundColor=none;fontColor=#EEEEEE;" vertex="1" parent="SqJzmu0Uh7ImOw3RZCEa-168">
          <mxGeometry y="230" width="190" height="30" as="geometry" />
        </mxCell>
        <mxCell id="SqJzmu0Uh7ImOw3RZCEa-178" value="" style="swimlane;fontStyle=0;align=center;verticalAlign=top;childLayout=stackLayout;horizontal=1;startSize=26;horizontalStack=0;resizeParent=1;resizeLast=0;collapsible=1;marginBottom=0;rounded=0;shadow=0;strokeWidth=1;labelBackgroundColor=none;fillColor=#09555B;strokeColor=#BAC8D3;fontColor=#EEEEEE;" vertex="1" parent="WIyWlLk6GJQsqaUBKTNV-1">
          <mxGeometry x="780" y="585" width="40" height="265" as="geometry">
            <mxRectangle x="230" y="140" width="160" height="26" as="alternateBounds" />
          </mxGeometry>
        </mxCell>
        <mxCell id="SqJzmu0Uh7ImOw3RZCEa-179" value="PK" style="text;align=left;verticalAlign=top;spacingLeft=4;spacingRight=4;overflow=hidden;rotatable=0;points=[[0,0.5],[1,0.5]];portConstraint=eastwest;labelBackgroundColor=none;fontColor=#EEEEEE;" vertex="1" parent="SqJzmu0Uh7ImOw3RZCEa-178">
          <mxGeometry y="26" width="40" height="26" as="geometry" />
        </mxCell>
        <mxCell id="SqJzmu0Uh7ImOw3RZCEa-180" value="" style="line;html=1;strokeWidth=1;align=left;verticalAlign=middle;spacingTop=-1;spacingLeft=3;spacingRight=3;rotatable=0;labelPosition=right;points=[];portConstraint=eastwest;labelBackgroundColor=none;fillColor=#09555B;strokeColor=#BAC8D3;fontColor=#EEEEEE;" vertex="1" parent="SqJzmu0Uh7ImOw3RZCEa-178">
          <mxGeometry y="52" width="40" height="8" as="geometry" />
        </mxCell>
        <mxCell id="SqJzmu0Uh7ImOw3RZCEa-181" value="FK" style="text;align=left;verticalAlign=top;spacingLeft=4;spacingRight=4;overflow=hidden;rotatable=0;points=[[0,0.5],[1,0.5]];portConstraint=eastwest;rounded=0;shadow=0;html=0;labelBackgroundColor=none;fontColor=#EEEEEE;" vertex="1" parent="SqJzmu0Uh7ImOw3RZCEa-178">
          <mxGeometry y="60" width="40" height="26" as="geometry" />
        </mxCell>
        <mxCell id="SqJzmu0Uh7ImOw3RZCEa-182" value="" style="line;html=1;strokeWidth=1;align=left;verticalAlign=middle;spacingTop=-1;spacingLeft=3;spacingRight=3;rotatable=0;labelPosition=right;points=[];portConstraint=eastwest;labelBackgroundColor=none;fillColor=#09555B;strokeColor=#BAC8D3;fontColor=#EEEEEE;" vertex="1" parent="SqJzmu0Uh7ImOw3RZCEa-178">
          <mxGeometry y="86" width="40" height="8" as="geometry" />
        </mxCell>
        <mxCell id="SqJzmu0Uh7ImOw3RZCEa-183" value=" " style="text;align=left;verticalAlign=top;spacingLeft=4;spacingRight=4;overflow=hidden;rotatable=0;points=[[0,0.5],[1,0.5]];portConstraint=eastwest;rounded=0;shadow=0;html=0;labelBackgroundColor=none;fontColor=#EEEEEE;" vertex="1" parent="SqJzmu0Uh7ImOw3RZCEa-178">
          <mxGeometry y="94" width="40" height="26" as="geometry" />
        </mxCell>
        <mxCell id="SqJzmu0Uh7ImOw3RZCEa-184" value="" style="line;html=1;strokeWidth=1;align=left;verticalAlign=middle;spacingTop=-1;spacingLeft=3;spacingRight=3;rotatable=0;labelPosition=right;points=[];portConstraint=eastwest;labelBackgroundColor=none;fillColor=#09555B;strokeColor=#BAC8D3;fontColor=#EEEEEE;" vertex="1" parent="SqJzmu0Uh7ImOw3RZCEa-178">
          <mxGeometry y="120" width="40" height="8" as="geometry" />
        </mxCell>
        <mxCell id="SqJzmu0Uh7ImOw3RZCEa-185" value=" " style="text;align=left;verticalAlign=top;spacingLeft=4;spacingRight=4;overflow=hidden;rotatable=0;points=[[0,0.5],[1,0.5]];portConstraint=eastwest;rounded=0;shadow=0;html=0;labelBackgroundColor=none;fontColor=#EEEEEE;" vertex="1" parent="SqJzmu0Uh7ImOw3RZCEa-178">
          <mxGeometry y="128" width="40" height="26" as="geometry" />
        </mxCell>
        <mxCell id="SqJzmu0Uh7ImOw3RZCEa-186" value="" style="line;html=1;strokeWidth=1;align=left;verticalAlign=middle;spacingTop=-1;spacingLeft=3;spacingRight=3;rotatable=0;labelPosition=right;points=[];portConstraint=eastwest;labelBackgroundColor=none;fillColor=#09555B;strokeColor=#BAC8D3;fontColor=#EEEEEE;" vertex="1" parent="SqJzmu0Uh7ImOw3RZCEa-178">
          <mxGeometry y="154" width="40" height="8" as="geometry" />
        </mxCell>
        <mxCell id="SqJzmu0Uh7ImOw3RZCEa-194" value=" " style="text;align=left;verticalAlign=top;spacingLeft=4;spacingRight=4;overflow=hidden;rotatable=0;points=[[0,0.5],[1,0.5]];portConstraint=eastwest;rounded=0;shadow=0;html=0;labelBackgroundColor=none;fontColor=#EEEEEE;" vertex="1" parent="SqJzmu0Uh7ImOw3RZCEa-178">
          <mxGeometry y="162" width="40" height="26" as="geometry" />
        </mxCell>
        <mxCell id="SqJzmu0Uh7ImOw3RZCEa-193" value="" style="line;html=1;strokeWidth=1;align=left;verticalAlign=middle;spacingTop=-1;spacingLeft=3;spacingRight=3;rotatable=0;labelPosition=right;points=[];portConstraint=eastwest;labelBackgroundColor=none;fillColor=#09555B;strokeColor=#BAC8D3;fontColor=#EEEEEE;" vertex="1" parent="SqJzmu0Uh7ImOw3RZCEa-178">
          <mxGeometry y="188" width="40" height="8" as="geometry" />
        </mxCell>
        <mxCell id="SqJzmu0Uh7ImOw3RZCEa-198" value=" " style="text;align=left;verticalAlign=top;spacingLeft=4;spacingRight=4;overflow=hidden;rotatable=0;points=[[0,0.5],[1,0.5]];portConstraint=eastwest;rounded=0;shadow=0;html=0;labelBackgroundColor=none;fontColor=#EEEEEE;" vertex="1" parent="SqJzmu0Uh7ImOw3RZCEa-178">
          <mxGeometry y="196" width="40" height="26" as="geometry" />
        </mxCell>
        <mxCell id="SqJzmu0Uh7ImOw3RZCEa-196" value="" style="line;html=1;strokeWidth=1;align=left;verticalAlign=middle;spacingTop=-1;spacingLeft=3;spacingRight=3;rotatable=0;labelPosition=right;points=[];portConstraint=eastwest;labelBackgroundColor=none;fillColor=#09555B;strokeColor=#BAC8D3;fontColor=#EEEEEE;" vertex="1" parent="SqJzmu0Uh7ImOw3RZCEa-178">
          <mxGeometry y="222" width="40" height="8" as="geometry" />
        </mxCell>
        <mxCell id="SqJzmu0Uh7ImOw3RZCEa-201" value=" " style="text;align=left;verticalAlign=top;spacingLeft=4;spacingRight=4;overflow=hidden;rotatable=0;points=[[0,0.5],[1,0.5]];portConstraint=eastwest;rounded=0;shadow=0;html=0;labelBackgroundColor=none;fontColor=#EEEEEE;" vertex="1" parent="SqJzmu0Uh7ImOw3RZCEa-178">
          <mxGeometry y="230" width="40" height="26" as="geometry" />
        </mxCell>
        <mxCell id="SqJzmu0Uh7ImOw3RZCEa-187" value="Type 1" style="whiteSpace=wrap;html=1;strokeColor=#BAC8D3;fontColor=#EEEEEE;fillColor=#09555B;" vertex="1" parent="WIyWlLk6GJQsqaUBKTNV-1">
          <mxGeometry x="379" y="560" width="100" height="20" as="geometry" />
        </mxCell>
        <mxCell id="SqJzmu0Uh7ImOw3RZCEa-188" value="Type 2" style="whiteSpace=wrap;html=1;strokeColor=#BAC8D3;fontColor=#EEEEEE;fillColor=#09555B;" vertex="1" parent="WIyWlLk6GJQsqaUBKTNV-1">
          <mxGeometry x="650" y="560" width="100" height="20" as="geometry" />
        </mxCell>
      </root>
    </mxGraphModel>
  </diagram>
</mxfile>
